<?xml version="1.0" encoding="UTF-8" standalone="no"?>
<!DOCTYPE svg PUBLIC "-//W3C//DTD SVG 1.1//EN"
 "http://www.w3.org/Graphics/SVG/1.1/DTD/svg11.dtd">
<!-- Generated by graphviz version 9.0.0 (20230911.1827)
 -->
<!-- Title: day8 Pages: 1 -->
<svg width="438pt" height="188pt"
 viewBox="0.00 0.00 437.71 188.00" xmlns="http://www.w3.org/2000/svg" xmlns:xlink="http://www.w3.org/1999/xlink">
<g id="graph0" class="graph" transform="scale(1 1) rotate(0) translate(4 184)">
<title>day8</title>
<polygon fill="white" stroke="none" points="-4,4 -4,-184 433.71,-184 433.71,4 -4,4"/>
<!-- AAA -->
<g id="node1" class="node">
<title>AAA</title>
<ellipse fill="none" stroke="black" cx="195.11" cy="-162" rx="30.11" ry="18"/>
<text text-anchor="middle" x="195.11" y="-156.57" font-family="Times New Roman,serif" font-size="14.00">AAA</text>
</g>
<!-- BBB -->
<g id="node2" class="node">
<title>BBB</title>
<ellipse fill="none" stroke="black" cx="141.11" cy="-90" rx="28.61" ry="18"/>
<text text-anchor="middle" x="141.11" y="-84.58" font-family="Times New Roman,serif" font-size="14.00">BBB</text>
</g>
<!-- AAA&#45;&gt;BBB -->
<g id="edge1" class="edge">
<title>AAA&#45;&gt;BBB</title>
<path fill="none" stroke="black" d="M182.85,-145.12C176.06,-136.31 167.47,-125.18 159.86,-115.31"/>
<polygon fill="black" stroke="black" points="162.74,-113.32 153.86,-107.54 157.2,-117.59 162.74,-113.32"/>
</g>
<!-- CCC -->
<g id="node3" class="node">
<title>CCC</title>
<ellipse fill="none" stroke="black" cx="249.11" cy="-90" rx="30.11" ry="18"/>
<text text-anchor="middle" x="249.11" y="-84.58" font-family="Times New Roman,serif" font-size="14.00">CCC</text>
</g>
<!-- AAA&#45;&gt;CCC -->
<g id="edge2" class="edge">
<title>AAA&#45;&gt;CCC</title>
<path fill="none" stroke="black" d="M207.36,-145.12C214.06,-136.43 222.5,-125.49 230.04,-115.72"/>
<polygon fill="black" stroke="black" points="232.64,-118.08 235.98,-108.02 227.1,-113.8 232.64,-118.08"/>
</g>
<!-- DDD -->
<g id="node4" class="node">
<title>DDD</title>
<ellipse fill="none" stroke="black" cx="30.11" cy="-18" rx="30.11" ry="18"/>
<text text-anchor="middle" x="30.11" y="-12.57" font-family="Times New Roman,serif" font-size="14.00">DDD</text>
</g>
<!-- BBB&#45;&gt;DDD -->
<g id="edge3" class="edge">
<title>BBB&#45;&gt;DDD</title>
<path fill="none" stroke="black" d="M121.26,-76.49C104.16,-65.7 79.23,-49.98 59.77,-37.7"/>
<polygon fill="black" stroke="black" points="61.76,-34.82 51.43,-32.45 58.02,-40.74 61.76,-34.82"/>
</g>
<!-- EEE -->
<g id="node5" class="node">
<title>EEE</title>
<ellipse fill="none" stroke="black" cx="141.11" cy="-18" rx="27.11" ry="18"/>
<text text-anchor="middle" x="141.11" y="-12.57" font-family="Times New Roman,serif" font-size="14.00">EEE</text>
</g>
<!-- BBB&#45;&gt;EEE -->
<g id="edge4" class="edge">
<title>BBB&#45;&gt;EEE</title>
<path fill="none" stroke="black" d="M141.11,-71.7C141.11,-64.41 141.11,-55.73 141.11,-47.54"/>
<polygon fill="black" stroke="black" points="144.61,-47.62 141.11,-37.62 137.61,-47.62 144.61,-47.62"/>
</g>
<!-- ZZZ -->
<g id="node6" class="node">
<title>ZZZ</title>
<ellipse fill="none" stroke="black" cx="249.11" cy="-18" rx="27.11" ry="18"/>
<text text-anchor="middle" x="249.11" y="-12.57" font-family="Times New Roman,serif" font-size="14.00">ZZZ</text>
</g>
<!-- CCC&#45;&gt;ZZZ -->
<g id="edge5" class="edge">
<title>CCC&#45;&gt;ZZZ</title>
<path fill="none" stroke="black" d="M249.11,-71.7C249.11,-64.41 249.11,-55.73 249.11,-47.54"/>
<polygon fill="black" stroke="black" points="252.61,-47.62 249.11,-37.62 245.61,-47.62 252.61,-47.62"/>
</g>
<!-- GGG -->
<g id="node7" class="node">
<title>GGG</title>
<ellipse fill="none" stroke="black" cx="362.11" cy="-18" rx="31.6" ry="18"/>
<text text-anchor="middle" x="362.11" y="-12.57" font-family="Times New Roman,serif" font-size="14.00">GGG</text>
</g>
<!-- CCC&#45;&gt;GGG -->
<g id="edge6" class="edge">
<title>CCC&#45;&gt;GGG</title>
<path fill="none" stroke="black" d="M269.57,-76.32C286.9,-65.59 312,-50.04 331.68,-37.85"/>
<polygon fill="black" stroke="black" points="333.47,-40.86 340.13,-32.62 329.78,-34.91 333.47,-40.86"/>
</g>
<!-- DDD&#45;&gt;DDD -->
<g id="edge7" class="edge">
<title>DDD&#45;&gt;DDD</title>
<path fill="none" stroke="black" d="M58.27,-24.72C69.16,-25.02 78.21,-22.78 78.21,-18 78.21,-15.01 74.68,-13.02 69.37,-12.01"/>
<polygon fill="black" stroke="black" points="69.99,-8.55 59.78,-11.38 69.53,-15.53 69.99,-8.55"/>
</g>
<!-- DDD&#45;&gt;DDD -->
<g id="edge8" class="edge">
<title>DDD&#45;&gt;DDD</title>
<path fill="none" stroke="black" d="M54.17,-29.36C74.67,-34.37 96.21,-30.59 96.21,-18 96.21,-7.68 81.71,-3.27 65.19,-4.79"/>
<polygon fill="black" stroke="black" points="64.95,-1.28 55.66,-6.39 66.11,-8.19 64.95,-1.28"/>
</g>
<!-- EEE&#45;&gt;EEE -->
<g id="edge9" class="edge">
<title>EEE&#45;&gt;EEE</title>
<path fill="none" stroke="black" d="M166.61,-24.69C177.22,-25.15 186.22,-22.92 186.22,-18 186.22,-15 182.88,-13 177.87,-12"/>
<polygon fill="black" stroke="black" points="178.32,-8.52 168.12,-11.4 177.89,-15.51 178.32,-8.52"/>
</g>
<!-- EEE&#45;&gt;EEE -->
<g id="edge10" class="edge">
<title>EEE&#45;&gt;EEE</title>
<path fill="none" stroke="black" d="M163.1,-29.1C182.95,-34.5 204.22,-30.8 204.22,-18 204.22,-7.6 190.18,-3.21 174.27,-4.83"/>
<polygon fill="black" stroke="black" points="173.78,-1.36 164.59,-6.63 175.06,-8.24 173.78,-1.36"/>
</g>
<!-- ZZZ&#45;&gt;ZZZ -->
<g id="edge13" class="edge">
<title>ZZZ&#45;&gt;ZZZ</title>
<path fill="none" stroke="black" d="M274.61,-24.69C285.22,-25.15 294.22,-22.92 294.22,-18 294.22,-15 290.88,-13 285.87,-12"/>
<polygon fill="black" stroke="black" points="286.32,-8.52 276.12,-11.4 285.89,-15.51 286.32,-8.52"/>
</g>
<!-- ZZZ&#45;&gt;ZZZ -->
<g id="edge14" class="edge">
<title>ZZZ&#45;&gt;ZZZ</title>
<path fill="none" stroke="black" d="M271.1,-29.1C290.95,-34.5 312.22,-30.8 312.22,-18 312.22,-7.6 298.18,-3.21 282.27,-4.83"/>
<polygon fill="black" stroke="black" points="281.78,-1.36 272.59,-6.63 283.06,-8.24 281.78,-1.36"/>
</g>
<!-- GGG&#45;&gt;GGG -->
<g id="edge11" class="edge">
<title>GGG&#45;&gt;GGG</title>
<path fill="none" stroke="black" d="M391.64,-24.74C402.65,-24.96 411.71,-22.71 411.71,-18 411.71,-15.06 408.17,-13.07 402.83,-12.06"/>
<polygon fill="black" stroke="black" points="403.37,-8.59 393.15,-11.37 402.88,-15.57 403.37,-8.59"/>
</g>
<!-- GGG&#45;&gt;GGG -->
<g id="edge12" class="edge">
<title>GGG&#45;&gt;GGG</title>
<path fill="none" stroke="black" d="M387.07,-29.44C407.92,-34.33 429.71,-30.52 429.71,-18 429.71,-7.73 415.05,-3.32 398.27,-4.77"/>
<polygon fill="black" stroke="black" points="397.88,-1.28 388.56,-6.32 398.99,-8.2 397.88,-1.28"/>
</g>
</g>
</svg>
