<?xml version="1.0" encoding="UTF-8" standalone="no"?>
<!DOCTYPE svg PUBLIC "-//W3C//DTD SVG 1.1//EN"
 "http://www.w3.org/Graphics/SVG/1.1/DTD/svg11.dtd">
<!-- Generated by graphviz version 9.0.0 (20230911.1827)
 -->
<!-- Title: day8 Pages: 1 -->
<svg width="186pt" height="404pt"
 viewBox="0.00 0.00 185.53 404.00" xmlns="http://www.w3.org/2000/svg" xmlns:xlink="http://www.w3.org/1999/xlink">
<g id="graph0" class="graph" transform="scale(1 1) rotate(0) translate(4 400)">
<title>day8</title>
<polygon fill="white" stroke="none" points="-4,4 -4,-400 181.53,-400 181.53,4 -4,4"/>
<!-- 11A -->
<g id="node1" class="node">
<title>11A</title>
<ellipse fill="none" stroke="black" cx="66.53" cy="-378" rx="27" ry="18"/>
<text text-anchor="middle" x="66.53" y="-372.57" font-family="Times New Roman,serif" font-size="14.00">11A</text>
</g>
<!-- 11B -->
<g id="node2" class="node">
<title>11B</title>
<ellipse fill="none" stroke="black" cx="39.53" cy="-306" rx="27" ry="18"/>
<text text-anchor="middle" x="39.53" y="-300.57" font-family="Times New Roman,serif" font-size="14.00">11B</text>
</g>
<!-- 11A&#45;&gt;11B -->
<g id="edge1" class="edge">
<title>11A&#45;&gt;11B</title>
<path fill="none" stroke="black" d="M59.99,-360.05C57.01,-352.32 53.4,-342.96 50.04,-334.27"/>
<polygon fill="black" stroke="black" points="53.41,-333.27 46.55,-325.2 46.88,-335.79 53.41,-333.27"/>
</g>
<!-- XXX -->
<g id="node3" class="node">
<title>XXX</title>
<ellipse fill="none" stroke="black" cx="39.53" cy="-162" rx="30.11" ry="18"/>
<text text-anchor="middle" x="39.53" y="-156.57" font-family="Times New Roman,serif" font-size="14.00">XXX</text>
</g>
<!-- 11A&#45;&gt;XXX -->
<g id="edge2" class="edge">
<title>11A&#45;&gt;XXX</title>
<path fill="none" stroke="black" d="M71.25,-360.08C78.76,-330.23 91.08,-266.57 75.53,-216 72.39,-205.8 66.55,-195.81 60.48,-187.29"/>
<polygon fill="black" stroke="black" points="63.43,-185.39 54.57,-179.58 57.87,-189.65 63.43,-185.39"/>
</g>
<!-- 11B&#45;&gt;XXX -->
<g id="edge3" class="edge">
<title>11B&#45;&gt;XXX</title>
<path fill="none" stroke="black" d="M25.78,-290.07C17.57,-280.1 7.91,-266.25 3.53,-252 -1.18,-236.71 -1.18,-231.29 3.53,-216 6.66,-205.8 12.5,-195.81 18.58,-187.29"/>
<polygon fill="black" stroke="black" points="21.18,-189.65 24.49,-179.58 15.63,-185.39 21.18,-189.65"/>
</g>
<!-- 11Z -->
<g id="node4" class="node">
<title>11Z</title>
<ellipse fill="none" stroke="black" cx="39.53" cy="-234" rx="27" ry="18"/>
<text text-anchor="middle" x="39.53" y="-228.57" font-family="Times New Roman,serif" font-size="14.00">11Z</text>
</g>
<!-- 11B&#45;&gt;11Z -->
<g id="edge4" class="edge">
<title>11B&#45;&gt;11Z</title>
<path fill="none" stroke="black" d="M33.65,-288.05C32.86,-280.57 32.6,-271.58 32.89,-263.14"/>
<polygon fill="black" stroke="black" points="36.38,-263.51 33.56,-253.3 29.39,-263.04 36.38,-263.51"/>
</g>
<!-- XXX&#45;&gt;XXX -->
<g id="edge15" class="edge">
<title>XXX&#45;&gt;XXX</title>
<path fill="none" stroke="black" d="M67.69,-168.72C78.58,-169.02 87.63,-166.78 87.63,-162 87.63,-159.01 84.1,-157.02 78.79,-156.01"/>
<polygon fill="black" stroke="black" points="79.41,-152.55 69.2,-155.38 78.95,-159.53 79.41,-152.55"/>
</g>
<!-- XXX&#45;&gt;XXX -->
<g id="edge16" class="edge">
<title>XXX&#45;&gt;XXX</title>
<path fill="none" stroke="black" d="M63.59,-173.36C84.09,-178.37 105.63,-174.59 105.63,-162 105.63,-151.68 91.13,-147.27 74.61,-148.79"/>
<polygon fill="black" stroke="black" points="74.37,-145.28 65.08,-150.39 75.53,-152.19 74.37,-145.28"/>
</g>
<!-- 11Z&#45;&gt;11B -->
<g id="edge5" class="edge">
<title>11Z&#45;&gt;11B</title>
<path fill="none" stroke="black" d="M45.39,-251.79C46.19,-259.25 46.45,-268.24 46.17,-276.69"/>
<polygon fill="black" stroke="black" points="42.68,-276.33 45.51,-286.54 49.67,-276.8 42.68,-276.33"/>
</g>
<!-- 11Z&#45;&gt;XXX -->
<g id="edge6" class="edge">
<title>11Z&#45;&gt;XXX</title>
<path fill="none" stroke="black" d="M39.53,-215.7C39.53,-208.41 39.53,-199.73 39.53,-191.54"/>
<polygon fill="black" stroke="black" points="43.03,-191.62 39.53,-181.62 36.03,-191.62 43.03,-191.62"/>
</g>
<!-- 22A -->
<g id="node5" class="node">
<title>22A</title>
<ellipse fill="none" stroke="black" cx="149.53" cy="-234" rx="27" ry="18"/>
<text text-anchor="middle" x="149.53" y="-228.57" font-family="Times New Roman,serif" font-size="14.00">22A</text>
</g>
<!-- 22A&#45;&gt;XXX -->
<g id="edge8" class="edge">
<title>22A&#45;&gt;XXX</title>
<path fill="none" stroke="black" d="M130.37,-220.81C113.49,-210.07 88.63,-194.25 69.19,-181.88"/>
<polygon fill="black" stroke="black" points="71.18,-178.99 60.86,-176.58 67.42,-184.9 71.18,-178.99"/>
</g>
<!-- 22B -->
<g id="node6" class="node">
<title>22B</title>
<ellipse fill="none" stroke="black" cx="150.53" cy="-162" rx="27" ry="18"/>
<text text-anchor="middle" x="150.53" y="-156.57" font-family="Times New Roman,serif" font-size="14.00">22B</text>
</g>
<!-- 22A&#45;&gt;22B -->
<g id="edge7" class="edge">
<title>22A&#45;&gt;22B</title>
<path fill="none" stroke="black" d="M149.77,-215.7C149.88,-208.41 150,-199.73 150.12,-191.54"/>
<polygon fill="black" stroke="black" points="153.62,-191.67 150.26,-181.62 146.62,-191.57 153.62,-191.67"/>
</g>
<!-- 22C -->
<g id="node7" class="node">
<title>22C</title>
<ellipse fill="none" stroke="black" cx="118.53" cy="-90" rx="27" ry="18"/>
<text text-anchor="middle" x="118.53" y="-84.58" font-family="Times New Roman,serif" font-size="14.00">22C</text>
</g>
<!-- 22B&#45;&gt;22C -->
<g id="edge9" class="edge">
<title>22B&#45;&gt;22C</title>
<path fill="none" stroke="black" d="M137.91,-145.81C133.34,-137.92 128.5,-128.03 124.63,-118.83"/>
<polygon fill="black" stroke="black" points="127.9,-117.59 121.01,-109.54 121.38,-120.13 127.9,-117.59"/>
</g>
<!-- 22B&#45;&gt;22C -->
<g id="edge10" class="edge">
<title>22B&#45;&gt;22C</title>
<path fill="none" stroke="black" d="M148.53,-143.7C145.61,-135.43 141.21,-125.38 136.6,-116.28"/>
<polygon fill="black" stroke="black" points="139.71,-114.67 131.88,-107.53 133.55,-118 139.71,-114.67"/>
</g>
<!-- 22Z -->
<g id="node8" class="node">
<title>22Z</title>
<ellipse fill="none" stroke="black" cx="150.53" cy="-18" rx="27" ry="18"/>
<text text-anchor="middle" x="150.53" y="-12.57" font-family="Times New Roman,serif" font-size="14.00">22Z</text>
</g>
<!-- 22C&#45;&gt;22Z -->
<g id="edge11" class="edge">
<title>22C&#45;&gt;22Z</title>
<path fill="none" stroke="black" d="M120.52,-71.7C123.45,-63.43 127.84,-53.38 132.46,-44.28"/>
<polygon fill="black" stroke="black" points="135.51,-46 137.18,-35.53 129.35,-42.67 135.51,-46"/>
</g>
<!-- 22C&#45;&gt;22Z -->
<g id="edge12" class="edge">
<title>22C&#45;&gt;22Z</title>
<path fill="none" stroke="black" d="M131.15,-73.81C135.72,-65.92 140.55,-56.03 144.43,-46.83"/>
<polygon fill="black" stroke="black" points="147.68,-48.13 148.05,-37.54 141.16,-45.59 147.68,-48.13"/>
</g>
<!-- 22Z&#45;&gt;22B -->
<g id="edge13" class="edge">
<title>22Z&#45;&gt;22B</title>
<path fill="none" stroke="black" d="M144.34,-35.69C144.02,-46.12 145.07,-59.83 145.53,-72 146.13,-87.99 146.13,-92.01 145.53,-108 145.22,-116.08 144.66,-124.84 144.41,-132.87"/>
<polygon fill="black" stroke="black" points="140.91,-132.78 144.35,-142.8 147.91,-132.81 140.91,-132.78"/>
</g>
<!-- 22Z&#45;&gt;22B -->
<g id="edge14" class="edge">
<title>22Z&#45;&gt;22B</title>
<path fill="none" stroke="black" d="M159.78,-35.22C161.99,-45.7 163.06,-59.64 163.53,-72 164.13,-87.99 164.13,-92.01 163.53,-108 163.21,-116.3 162.63,-125.32 161.6,-133.52"/>
<polygon fill="black" stroke="black" points="158.17,-132.86 160.02,-143.29 165.08,-133.98 158.17,-132.86"/>
</g>
</g>
</svg>
